<mxfile host="app.diagrams.net" modified="2020-12-22T07:36:38.727Z" agent="5.0 (Macintosh; Intel Mac OS X 11_1_0) AppleWebKit/537.36 (KHTML, like Gecko) Chrome/89.0.4356.6 Safari/537.36" etag="OcsIEPVJR2hv4G8yuD7S" version="14.1.1" type="github">
  <diagram name="Page-1" id="74b105a0-9070-1c63-61bc-23e55f88626e">
    <mxGraphModel dx="1156" dy="1066" grid="1" gridSize="10" guides="1" tooltips="1" connect="1" arrows="1" fold="1" page="1" pageScale="1.5" pageWidth="1169" pageHeight="826" background="none" math="0" shadow="0">
      <root>
        <mxCell id="0" style=";html=1;" />
        <mxCell id="1" style=";html=1;" parent="0" />
        <mxCell id="OhO_-kwdSSa76K_JumeM-27" value="" style="rounded=0;whiteSpace=wrap;html=1;" vertex="1" parent="1">
          <mxGeometry x="690" y="780" width="400" height="320" as="geometry" />
        </mxCell>
        <mxCell id="OhO_-kwdSSa76K_JumeM-4" value="" style="rounded=0;whiteSpace=wrap;html=1;" vertex="1" parent="1">
          <mxGeometry x="200" y="780" width="480" height="320" as="geometry" />
        </mxCell>
        <mxCell id="OhO_-kwdSSa76K_JumeM-1" value="client" style="ellipse;whiteSpace=wrap;html=1;aspect=fixed;" vertex="1" parent="1">
          <mxGeometry x="260" y="820" width="80" height="80" as="geometry" />
        </mxCell>
        <mxCell id="OhO_-kwdSSa76K_JumeM-2" value="api gateway" style="rounded=0;whiteSpace=wrap;html=1;" vertex="1" parent="1">
          <mxGeometry x="510" y="830" width="120" height="60" as="geometry" />
        </mxCell>
        <mxCell id="OhO_-kwdSSa76K_JumeM-3" value="database&lt;br&gt;(postgest)" style="shape=cylinder3;whiteSpace=wrap;html=1;boundedLbl=1;backgroundOutline=1;size=15;" vertex="1" parent="1">
          <mxGeometry x="540" y="990" width="60" height="80" as="geometry" />
        </mxCell>
        <mxCell id="OhO_-kwdSSa76K_JumeM-10" value="&lt;font style=&quot;font-size: 30px&quot;&gt;Doing&lt;/font&gt;" style="text;html=1;strokeColor=none;fillColor=none;align=center;verticalAlign=middle;whiteSpace=wrap;rounded=0;" vertex="1" parent="1">
          <mxGeometry x="400" y="730" width="60" height="20" as="geometry" />
        </mxCell>
        <mxCell id="OhO_-kwdSSa76K_JumeM-13" value="font end" style="rounded=0;whiteSpace=wrap;html=1;" vertex="1" parent="1">
          <mxGeometry x="740" y="910" width="120" height="60" as="geometry" />
        </mxCell>
        <mxCell id="OhO_-kwdSSa76K_JumeM-15" value="s3 or gcs" style="shape=cylinder3;whiteSpace=wrap;html=1;boundedLbl=1;backgroundOutline=1;size=15;" vertex="1" parent="1">
          <mxGeometry x="750" y="1010" width="60" height="80" as="geometry" />
        </mxCell>
        <mxCell id="OhO_-kwdSSa76K_JumeM-17" value="" style="endArrow=classic;startArrow=classic;html=1;entryX=0;entryY=0.5;entryDx=0;entryDy=0;" edge="1" parent="1" source="OhO_-kwdSSa76K_JumeM-1" target="OhO_-kwdSSa76K_JumeM-2">
          <mxGeometry width="50" height="50" relative="1" as="geometry">
            <mxPoint x="390" y="890" as="sourcePoint" />
            <mxPoint x="440" y="840" as="targetPoint" />
          </mxGeometry>
        </mxCell>
        <mxCell id="OhO_-kwdSSa76K_JumeM-18" value="" style="endArrow=classic;startArrow=classic;html=1;entryX=0.5;entryY=1;entryDx=0;entryDy=0;exitX=0.5;exitY=0;exitDx=0;exitDy=0;exitPerimeter=0;" edge="1" parent="1" source="OhO_-kwdSSa76K_JumeM-3" target="OhO_-kwdSSa76K_JumeM-2">
          <mxGeometry width="50" height="50" relative="1" as="geometry">
            <mxPoint x="550" y="980" as="sourcePoint" />
            <mxPoint x="600" y="930" as="targetPoint" />
          </mxGeometry>
        </mxCell>
        <mxCell id="OhO_-kwdSSa76K_JumeM-19" value="" style="endArrow=classic;startArrow=classic;html=1;entryX=0;entryY=0.5;entryDx=0;entryDy=0;exitX=1;exitY=0.5;exitDx=0;exitDy=0;" edge="1" parent="1" source="OhO_-kwdSSa76K_JumeM-2" target="OhO_-kwdSSa76K_JumeM-13">
          <mxGeometry width="50" height="50" relative="1" as="geometry">
            <mxPoint x="700" y="890" as="sourcePoint" />
            <mxPoint x="750" y="840" as="targetPoint" />
          </mxGeometry>
        </mxCell>
        <mxCell id="OhO_-kwdSSa76K_JumeM-20" value="" style="endArrow=classic;startArrow=classic;html=1;exitX=0.5;exitY=0;exitDx=0;exitDy=0;exitPerimeter=0;" edge="1" parent="1" source="OhO_-kwdSSa76K_JumeM-15" target="OhO_-kwdSSa76K_JumeM-2">
          <mxGeometry width="50" height="50" relative="1" as="geometry">
            <mxPoint x="800" y="980" as="sourcePoint" />
            <mxPoint x="850" y="930" as="targetPoint" />
          </mxGeometry>
        </mxCell>
        <mxCell id="OhO_-kwdSSa76K_JumeM-21" value="redis cluster" style="shape=cylinder3;whiteSpace=wrap;html=1;boundedLbl=1;backgroundOutline=1;size=15;" vertex="1" parent="1">
          <mxGeometry x="750" y="790" width="60" height="80" as="geometry" />
        </mxCell>
        <mxCell id="OhO_-kwdSSa76K_JumeM-22" value="" style="endArrow=classic;startArrow=classic;html=1;entryX=0;entryY=0;entryDx=0;entryDy=27.5;entryPerimeter=0;" edge="1" parent="1" source="OhO_-kwdSSa76K_JumeM-2" target="OhO_-kwdSSa76K_JumeM-21">
          <mxGeometry width="50" height="50" relative="1" as="geometry">
            <mxPoint x="670" y="1180" as="sourcePoint" />
            <mxPoint x="720" y="1130" as="targetPoint" />
          </mxGeometry>
        </mxCell>
        <mxCell id="OhO_-kwdSSa76K_JumeM-29" value="future" style="text;html=1;strokeColor=none;fillColor=none;align=center;verticalAlign=middle;whiteSpace=wrap;rounded=0;" vertex="1" parent="1">
          <mxGeometry x="790" y="730" width="40" height="20" as="geometry" />
        </mxCell>
      </root>
    </mxGraphModel>
  </diagram>
</mxfile>
